<svg width="17" height="17" viewBox="0 0 17 17" fill="none" xmlns="http://www.w3.org/2000/svg">
<path d="M16.3376 14.8464L16.1582 14.6881C15.6491 14.2345 15.2035 13.7144 14.8335 13.1417C14.4293 12.3514 14.1871 11.4883 14.121 10.6031V7.99586C14.1188 7.67916 14.0906 7.36319 14.0365 7.05113C13.1425 6.86738 12.3395 6.38034 11.7634 5.67246C11.1873 4.96459 10.8735 4.07937 10.8751 3.16669V2.83419C10.3241 2.56301 9.73206 2.38469 9.12292 2.30641V1.64141C9.12292 1.45454 9.04869 1.27533 8.91655 1.1432C8.78442 1.01106 8.6052 0.936829 8.41834 0.936829C8.23147 0.936829 8.05226 1.01106 7.92012 1.1432C7.78798 1.27533 7.71375 1.45454 7.71375 1.64141V2.3328C6.34982 2.5252 5.10156 3.20455 4.1994 4.24543C3.29724 5.28631 2.80211 6.61843 2.80542 7.99586V10.6031C2.73932 11.4883 2.49708 12.3514 2.09292 13.1417C1.72922 13.7129 1.2908 14.233 0.789308 14.6881L0.609863 14.8464V16.3347H16.3376V14.8464Z" fill="#7C7D7E"/>
</svg>
